<svg xmlns="http://www.w3.org/2000/svg" width="100" height="94" viewBox="0 0 100 94" fill="none"><path fill-rule="evenodd" clip-rule="evenodd" d="M57.6623 30.2324V1.77838H60.2597V29.9784H94.8052V32.5189H60C58.7089 32.5189 57.6623 31.4952 57.6623 30.2324Z" fill="#555555"></path><path fill-rule="evenodd" clip-rule="evenodd" d="M0 2.28649C0 1.02369 1.04661 0 2.33767 0H93.7662C95.0573 0 96.1039 1.02369 96.1039 2.28649V40.5761H93.5065V2.54054H2.5974V91.4595H93.5065V68.1591H96.1039V91.7135C96.1039 92.9763 95.0573 94 93.7662 94H2.33766C1.0466 94 0 92.9763 0 91.7135V2.28649Z" fill="#555555"></path><path d="M89.6104 40.9027C89.6104 40.3415 90.0755 39.8865 90.6494 39.8865H98.961C99.5348 39.8865 100 40.3415 100 40.9027C100 41.4639 99.5348 41.9189 98.961 41.9189H90.6494C90.0755 41.9189 89.6104 41.4639 89.6104 40.9027Z" fill="#555555"></path><path d="M31.4286 55.1297C31.4286 54.5685 31.8937 54.1135 32.4675 54.1135H40.7792C41.353 54.1135 41.8182 54.5685 41.8182 55.1297C41.8182 55.691 41.353 56.1459 40.7792 56.1459H32.4675C31.8937 56.1459 31.4286 55.691 31.4286 55.1297Z" fill="#555555"></path><path d="M89.6104 67.3243C89.6104 66.7631 90.0755 66.3081 90.6494 66.3081H98.961C99.5348 66.3081 100 66.7631 100 67.3243C100 67.8856 99.5348 68.3405 98.961 68.3405H90.6494C90.0755 68.3405 89.6104 67.8856 89.6104 67.3243Z" fill="#555555"></path><path fill-rule="evenodd" clip-rule="evenodd" d="M66.7533 7.36757V11.4324H87.5325V7.36757H66.7533ZM65.7143 5.33513C65.1405 5.33513 64.6753 5.79011 64.6753 6.35135V12.4486C64.6753 13.0099 65.1405 13.4649 65.7143 13.4649H88.5714C89.1452 13.4649 89.6104 13.0099 89.6104 12.4486V6.35135C89.6104 5.79011 89.1452 5.33513 88.5714 5.33513H65.7143Z" fill="#555555"></path><path fill-rule="evenodd" clip-rule="evenodd" d="M10.6494 80.5351V84.6H31.4286V80.5351H10.6494ZM9.61039 78.5027C9.03659 78.5027 8.57143 78.9577 8.57143 79.5189V85.6162C8.57143 86.1775 9.03659 86.6324 9.61039 86.6324H32.4675C33.0413 86.6324 33.5065 86.1775 33.5065 85.6162V79.5189C33.5065 78.9577 33.0413 78.5027 32.4675 78.5027H9.61039Z" fill="#555555"></path><path fill-rule="evenodd" clip-rule="evenodd" d="M10.6494 54.1135H14.8052L14.8052 33.7892H10.6494L10.6494 54.1135ZM8.57143 55.1297C8.57143 55.691 9.03659 56.1459 9.61039 56.1459H15.8442C16.418 56.1459 16.8831 55.691 16.8831 55.1297L16.8831 32.773C16.8831 32.2117 16.418 31.7568 15.8442 31.7568H9.61039C9.03659 31.7568 8.57143 32.2117 8.57143 32.773L8.57143 55.1297Z" fill="#555555"></path><path fill-rule="evenodd" clip-rule="evenodd" d="M35.3247 19.8162H1.81818V17.2757H35.5844C36.8755 17.2757 37.9221 18.2994 37.9221 19.5622V54.6216H35.3247V19.8162Z" fill="#555555"></path><path fill-rule="evenodd" clip-rule="evenodd" d="M43.6364 75.454C43.6364 74.1913 44.683 73.1676 45.974 73.1676H94.8052V75.7081H46.2338V92.2216H43.6364V75.454Z" fill="#555555"></path></svg>