<svg xmlns="http://www.w3.org/2000/svg" width="25" height="25" viewBox="0 0 25 25" fill="none"><rect x="0.5" y="0.5" width="24" height="24" fill="white" stroke="#E7E7E7"></rect><rect width="13" height="13" transform="translate(6 6)" fill="white"></rect><path fill-rule="evenodd" clip-rule="evenodd" d="M14.2123 10.7115C13.346 9.64669 13.1006 8.44251 13.1528 7.625L14.2513 7.70132C14.2154 8.26371 14.3884 9.18624 15.0636 10.0163C15.7272 10.8318 16.9155 11.6062 18.9964 11.8205V12.3641L19 12.6951V13.1951C16.9203 13.3983 15.7361 14.1663 15.0768 14.9786C14.406 15.805 14.238 16.7266 14.2768 17.2892L13.1787 17.3597C13.1222 16.5418 13.3612 15.3389 14.2218 14.2786C14.6225 13.7849 15.1498 13.3321 15.8278 12.9647L6.0209 13.1633L6 12.0592L15.5343 11.8644C14.9919 11.5277 14.5562 11.1343 14.2123 10.7115Z" fill="#0F0F0F"></path></svg>